<svg xmlns="http://www.w3.org/2000/svg" width="200" height="54" viewBox="0 0 200 54" fill="none"><path d="M99.9406 40.9285V38.8926C98.3411 40.7467 96.3779 41.3647 93.9785 41.3647C89.9069 41.3647 87.0712 39.3289 87.0712 35.5844C87.0712 32.2034 89.3252 30.6402 94.5239 29.7314L99.7952 28.8225V27.95C99.7952 26.5322 99.0681 25.5506 96.7051 25.5506C94.7056 25.5506 93.3242 26.4595 93.2878 28.1318H87.9801C88.0528 23.6965 91.8336 21.588 96.6688 21.588C102.267 21.588 104.994 23.8056 104.994 27.332V40.9285H99.9406ZM92.488 35.4026C92.488 36.7477 93.4696 37.6202 95.3964 37.6202C97.6867 37.6202 99.7952 36.4933 99.7952 33.694V32.1671L95.5781 33.0032C93.5423 33.4031 92.488 33.8757 92.488 35.4026ZM108.182 14.7534H113.489V35.2936C113.489 36.4205 113.926 36.9659 115.234 36.9659H117.707V40.9285H113.817C110.69 40.9285 108.182 40.0923 108.182 35.8389V14.7534ZM122.321 16.2076H127.665V22.0243H132.319V25.9869H127.665V35.2936C127.665 36.4205 128.065 36.9659 129.41 36.9659H132.319V40.9285H127.956C124.83 40.9285 122.321 40.0923 122.321 35.8389V25.9869H119.086V22.0243H122.321V16.2076ZM134.985 40.9285V22.0243H140.329V40.9285H134.985ZM134.985 19.2977V14.7534H140.293V19.2977H134.985ZM156.147 40.9285V38.5654C154.512 40.674 152.33 41.3647 150.113 41.3647C145.859 41.3647 143.278 39.3652 143.278 35.8025C143.278 32.4579 145.859 30.7129 150.076 29.9131L156.002 28.7861V27.332C156.002 25.078 154.475 24.2782 151.858 24.2782C149.604 24.2782 147.132 24.9689 146.986 27.8409H143.932C144.078 23.2603 147.859 21.588 151.858 21.588C156.729 21.588 158.983 23.6965 158.983 27.0411V40.9285H156.147ZM146.441 35.7298C146.441 37.4748 147.568 38.6745 150.258 38.6745C153.021 38.6745 156.002 37.1113 156.002 33.4395V31.3673L150.513 32.4943C148.077 33.0032 146.441 33.5849 146.441 35.7298ZM180.204 40.9285H177.295V38.0201C175.95 40.0923 173.805 41.3647 170.897 41.3647C165.226 41.3647 162.099 37.1476 162.099 31.4764C162.099 25.8051 165.226 21.588 170.897 21.588C173.696 21.588 175.805 22.7513 177.15 24.7145V14.7534H180.204V40.9285ZM165.299 31.4764C165.299 35.6208 167.262 38.6018 171.261 38.6018C175.26 38.6018 177.223 35.6208 177.223 31.4764C177.223 27.332 175.26 24.3509 171.261 24.3509C167.262 24.3509 165.299 27.332 165.299 31.4764ZM191.388 41.3647C186.844 41.3647 183.572 39.3289 183.318 34.7482H186.408C186.699 37.6566 188.371 38.7109 191.388 38.7109C194.188 38.7109 195.86 37.6929 195.86 35.8752C195.86 34.2029 195.278 33.4758 191.098 32.7851C185.317 31.8399 183.899 29.9495 183.899 26.9684C183.899 23.6965 186.808 21.588 190.843 21.588C195.605 21.588 198.55 23.842 198.587 27.8409H195.533C195.424 25.0053 193.424 24.2419 190.843 24.2419C188.698 24.2419 186.953 25.1871 186.953 26.9321C186.953 28.6771 187.898 29.2951 191.861 29.9858C197.423 30.9674 198.95 32.567 198.95 35.6935C198.95 39.3289 195.715 41.3647 191.388 41.3647Z" fill="#0085FF"></path><path fill-rule="evenodd" clip-rule="evenodd" d="M40.3973 15.5144L32.8875 8.00463L0 40.8921H15.0196L40.3973 15.5144ZM36.2991 40.8921H21.2795L54.167 8.00463L61.6768 15.5144L36.2991 40.8921ZM57.5786 40.8921H42.559L75.4465 8.00463L82.9563 15.5144L57.5786 40.8921Z" fill="#0085FF"></path></svg>