<svg xmlns="http://www.w3.org/2000/svg" width="247" height="25" viewBox="0 0 247 25" fill="none"><path fill-rule="evenodd" clip-rule="evenodd" d="M184.929 0.191397C185.818 0.191397 186.006 0.724683 186.006 1.17308V2.82387H184.307C183.456 2.82387 183.278 2.31605 183.278 1.89004V0.19294H184.929V0.191397ZM184.785 5.5999C185.49 5.5999 185.862 5.95491 185.862 6.62865V20.4848H184.33V20.4308C183.782 20.3814 183.421 19.9832 183.421 19.4082V5.5999H184.785ZM103.698 16.4038C104.222 16.88 104.373 17.0783 104.378 17.0868L104.439 17.1678L104.37 17.2411C102.007 19.7162 99.6336 20.7719 96.4338 20.7719C90.6904 20.7719 86.3585 16.3173 86.3585 10.4103C86.3585 4.57268 90.8054 0 96.4817 0C100.378 0 102.527 1.53426 104.27 3.192L104.354 3.27227L104.276 3.3587C104.272 3.36333 103.838 3.84491 103.411 4.27247C102.924 4.81347 102.264 4.68073 101.859 4.32649C100.209 2.94195 98.4852 2.29676 96.4338 2.29676C92.1359 2.29676 88.8953 5.74422 88.8953 10.3138C88.8953 14.8626 92.2069 18.4266 96.4338 18.4266C98.5639 18.4266 100.165 17.8246 101.957 16.3482C102.399 15.9562 103.14 15.8466 103.698 16.4038ZM140.082 5.2171C143.522 5.2171 145.658 7.51849 145.658 11.2237V20.3891H144.39C143.399 20.3891 143.265 19.7717 143.265 19.1682V11.7022C143.265 8.97944 141.93 7.41894 139.604 7.41894C137.638 7.41894 135.655 8.78727 135.655 11.8458V20.3891H134.339C133.644 20.3891 133.261 20.0064 133.261 19.3118V11.6544C133.261 9.00182 131.893 7.41894 129.601 7.41894C127.313 7.41894 125.653 9.30049 125.653 11.8936V19.3118C125.653 20.1723 125.275 20.3413 124.623 20.3413H123.259V5.45635H124.575C125.29 5.45635 125.7 5.86538 125.7 6.5808V7.63271C126.618 6.34387 127.915 5.12218 130.319 5.12218C133.113 5.12218 134.447 6.79998 135.027 7.92598C136.321 6.10463 137.977 5.2171 140.082 5.2171H140.082ZM157.36 5.26495C160.806 5.26495 164.468 7.97383 164.468 12.9941C164.468 18.0152 160.806 20.7241 157.36 20.7241C155.139 20.7241 153.344 19.7864 151.88 17.8593V24.9364H150.517C149.843 24.9364 149.487 24.5636 149.487 23.859V5.55205H150.66C151.458 5.55205 151.879 5.95722 151.879 6.72435V8.26016C153.345 6.24509 155.141 5.26495 157.36 5.26495V5.26495ZM161.979 12.9941C161.979 9.33368 159.438 7.41894 156.929 7.41894C154.377 7.41894 151.737 9.48648 151.737 12.9463C151.737 16.4362 154.376 18.5223 156.929 18.5223C159.903 18.5223 161.979 16.2494 161.979 12.9941ZM201.656 6.62943C201.656 5.90397 202.32 5.5042 202.78 5.5042H204.096V17.7327C204.096 22.3409 201.349 24.9834 196.558 24.9834C194.048 24.9834 191.788 24.2835 189.836 22.9035L189.753 22.8441L189.799 22.7523C189.805 22.7407 189.949 22.4536 190.33 21.8339C190.534 21.502 190.796 21.3477 191.086 21.3515C191.326 21.3577 191.593 21.4619 191.979 21.6988C193.364 22.4721 194.924 22.8781 196.51 22.8781C199.81 22.8781 201.703 21.0197 201.703 17.7806V16.3999C200.135 18.31 198.292 19.24 196.08 19.24C192.681 19.24 189.068 16.7819 189.068 12.2278C189.068 10.1965 189.84 8.35894 191.242 7.05467C192.531 5.85612 194.294 5.16848 196.08 5.16848C198.894 5.16848 200.642 6.58698 201.656 7.8928V6.62943ZM201.751 12.3242C201.751 9.13765 199.051 7.41817 196.511 7.41817C193.64 7.41817 191.556 9.46179 191.556 12.2764C191.556 15.0733 193.687 17.1817 196.511 17.1817C199.087 17.1817 201.751 15.365 201.751 12.3242V12.3242ZM215.368 5.26495C218.842 5.26495 221.087 7.60339 221.087 11.2229V20.4362H219.627C218.958 20.4362 218.647 20.1105 218.647 19.4082V11.7501C218.647 9.06742 217.17 7.46679 214.698 7.46679C212.176 7.46679 210.414 9.30666 210.414 11.9415L210.463 20.4362H208.021V5.55205H209.337C209.897 5.55205 210.462 5.87001 210.462 6.5808V7.84804C211.631 6.13318 213.279 5.26495 215.368 5.26495V5.26495ZM173.442 5.36065C177.514 5.36065 179.783 7.47528 179.832 11.3179V20.3891H178.515C177.813 20.3891 177.486 20.0774 177.486 19.4082V18.4011C176.174 19.923 174.386 20.7241 172.293 20.7241C168.462 20.7241 166.717 18.2799 166.717 16.0094C166.717 13.0134 169.046 11.2955 173.107 11.2955H175.571V12.1329C175.571 12.8251 175.219 13.1616 174.494 13.1616H173.298C170.628 13.1616 169.158 14.1564 169.158 15.9616C169.158 17.8856 171.006 18.7615 172.723 18.7615C175.483 18.7615 177.485 17.1408 177.485 14.9089V11.3665C177.485 8.88142 175.982 7.51386 173.25 7.51386C172.019 7.51386 170.91 7.73304 169.656 8.22388C169.2 8.37592 168.645 8.3628 168.448 7.86964C168.298 7.48752 168.154 7.10314 168.016 6.71663L167.979 6.61322L168.079 6.56691C169.916 5.73264 171.57 5.36065 173.442 5.36065V5.36065ZM113.184 5.36065C117.256 5.36065 119.526 7.47528 119.574 11.3179V20.3891H118.258C117.555 20.3891 117.228 20.0774 117.228 19.4082V18.4011C115.918 19.923 114.13 20.7241 112.036 20.7241C108.205 20.7241 106.46 18.2799 106.46 16.0094C106.46 13.0134 108.789 11.2955 112.85 11.2955H115.296V12.1329C115.296 12.8251 114.944 13.1616 114.22 13.1616H113.041C110.37 13.1616 108.901 14.1564 108.901 15.9616C108.901 17.8856 110.749 18.7615 112.466 18.7615C115.226 18.7615 117.228 17.1408 117.228 14.9089V11.3665C117.228 8.88142 115.724 7.51386 112.993 7.51386C111.762 7.51386 110.654 7.73304 109.399 8.22388C108.94 8.37746 108.388 8.3628 108.192 7.86964C108.041 7.48765 107.897 7.10326 107.759 6.71663L107.721 6.61168L107.823 6.56691C109.244 5.94024 110.877 5.36065 113.184 5.36065V5.36065ZM245.688 10.888C246.226 11.2662 246.501 11.7339 246.501 12.2764V12.5457C246.495 12.9648 246.345 13.5544 245.688 14.0476L245.685 14.0491C245.369 14.2753 242.148 16.5064 238.739 18.8696C235.403 21.181 231.645 23.7857 231.186 24.1106V24.4864L230.963 24.1114C230.952 24.0921 230.942 24.0759 230.953 24.0496H230.946V22.0878C230.946 21.4187 231.02 21.0969 231.765 20.6006C232.387 20.2008 242.233 13.3731 243.54 12.4686C242.243 11.5679 232.524 4.82042 231.858 4.33267L231.779 4.27555C231.287 3.919 230.899 3.63808 230.899 2.89565V0.560298L231.086 0.691498C231.667 1.0959 245.307 10.6032 245.688 10.888V10.888ZM237.162 13.529C236.825 13.529 236.491 13.4117 236.139 13.1778C235.287 12.609 230.916 9.56983 230.872 9.53896L230.821 9.50346V8.0047C230.821 7.6605 230.97 7.38807 231.23 7.2561C231.508 7.11409 231.856 7.1604 232.16 7.38112C232.818 7.80405 239.177 12.217 239.241 12.2625L239.386 12.3621L239.239 12.4601C239.239 12.4601 238.809 12.7464 238.332 13.0798C237.924 13.3792 237.542 13.529 237.162 13.529V13.529ZM34.155 17.025C34.622 17.492 34.8612 17.6849 34.8635 17.6872L34.96 17.7644L34.8797 17.8585C33.7167 19.2145 31.9818 20.7719 28.8538 20.7719C24.6446 20.7719 21.2196 17.3044 21.2196 13.042C21.2196 8.68077 24.5729 5.26495 28.8538 5.26495C31.2594 5.26495 33.0877 6.07376 34.7809 7.8874L34.855 7.96766L34.7817 8.04869C34.5155 8.34351 34.243 8.63292 33.9637 8.91538C33.4944 9.38307 33.002 9.35606 32.3661 8.82663C31.5079 8.1305 30.4112 7.41817 28.806 7.41817C25.9481 7.41817 23.7085 9.86773 23.7085 12.9941C23.7085 16.1213 26.0107 18.5709 28.9487 18.5709C30.3047 18.5709 31.5496 18.0654 32.6501 17.0698C32.9735 16.8105 33.6457 16.5157 34.155 17.0258V17.025ZM50.0564 0.192168C50.7109 0.192168 51.133 0.633616 51.133 1.3174V2.82464H49.4344C48.5839 2.82464 48.4048 2.31683 48.4048 1.89081V0.19294H50.0564V0.192168ZM49.865 5.60067C50.5696 5.60067 50.9416 5.95568 50.9416 6.62943V20.4856H49.4104V20.4316C48.861 20.3822 48.5005 19.984 48.5005 19.409V5.5999H49.865V5.60067ZM65.5966 6.39018C65.832 5.82525 66.2595 5.55128 66.9032 5.55128H68.5702L68.4969 5.71875C68.4382 5.85303 62.6546 19.1265 62.4177 19.6475C62.1669 20.2001 61.8049 20.4362 61.2084 20.4362H60.9205C60.3046 20.4362 59.9218 20.3181 59.6617 19.693C59.4264 19.1744 53.642 5.80518 53.5841 5.67013L53.5116 5.50265H55.2249C55.8786 5.50265 56.3347 5.8021 56.5801 6.39018C56.7538 6.91112 60.3803 15.71 61.064 17.37C61.7494 15.7107 65.3813 6.90726 65.5966 6.39018V6.39018ZM80.5919 12.1089C80.7308 12.1089 80.8335 12.0719 80.8929 11.9986C80.9762 11.9006 80.9963 11.7223 80.9523 11.483C80.7547 9.01802 78.9751 7.36954 76.5232 7.36954C74.0906 7.36954 72.1913 9.37226 71.9042 12.2394C71.9034 12.2478 71.8571 12.5782 71.8571 13.0412C71.8571 13.458 71.9034 13.7875 71.9034 13.7906C72.209 16.7078 74.238 18.665 76.9538 18.665C78.5305 18.665 79.8194 18.1904 80.8937 17.2126C81.1792 16.927 81.7218 16.7503 82.2936 17.2072C82.6795 17.5452 83.0145 17.8323 83.0145 17.8323L83.1086 17.9126L83.0253 18.0036C81.2803 19.9176 79.3934 20.7712 76.906 20.7712C72.6636 20.7712 69.4639 17.4271 69.4639 12.9941C69.4639 8.5596 72.5401 5.21633 76.6189 5.21633C80.3426 5.21633 83.0831 7.73999 83.4389 11.4985C83.4984 12.3019 83.317 12.9548 82.9141 13.3885C82.5236 13.8091 81.9355 14.0229 81.1661 14.0229C79.8572 14.0229 76.6976 14.0275 73.9764 14.0707L73.8552 14.0723V13.1369C73.8552 12.4933 74.2395 12.1082 74.884 12.1082H80.5919V12.1089ZM11.7802 0.929972C12.0642 1.54584 20.4069 20.0804 20.4918 20.2672L20.5674 20.4362H19.1381C18.8341 20.4362 17.9095 20.4362 17.5452 19.6483C17.2813 19.0748 11.1782 5.22251 10.2829 3.19046L5.92095 12.9702H12.3775V14.0476C12.3775 14.7491 11.8681 15.2199 11.1095 15.2199H4.95239C4.72009 15.7323 3.28539 18.8865 3.02144 19.4576C2.651 20.146 2.21881 20.437 1.57285 20.437H0L0.0756326 20.2672C0.160526 20.0789 8.59742 1.31045 8.7865 0.884438C9.0489 0.410577 9.47105 0.143548 9.94877 0.143548H10.523C11.1689 0.143548 11.4853 0.34189 11.7786 0.927657L11.7802 0.930744V0.929972ZM44.9504 18.3293C45.0855 18.4296 45.246 18.6318 45.246 19.0239C45.246 19.551 45.1997 19.9763 45.1982 19.9948L45.1905 20.0588L45.1326 20.0882C44.3732 20.4686 43.1592 20.7233 42.1111 20.7233C39.3799 20.7233 37.8757 19.2184 37.8757 16.4871V0.239246H39.0488C39.7897 0.239246 40.2682 0.680693 40.2682 1.36447V5.5999H43.6431C44.2535 5.5999 44.9111 5.95182 44.9111 6.72435V7.75311H40.2689L40.3168 16.153C40.3168 17.6934 41.0978 18.4744 42.6375 18.4744C43.143 18.4744 43.5057 18.3857 44.0421 18.2398C44.3971 18.1333 44.7289 18.1657 44.9504 18.3301V18.3293Z" fill="white"></path></svg>