<svg xmlns="http://www.w3.org/2000/svg" width="113" height="31" viewBox="0 0 113 31" fill="none"><path d="M21.4755 14.2921C21.6818 14.2921 21.8882 14.2921 22.0945 14.2921C22.2258 14.0107 22.2258 13.598 22.0945 13.129C21.9632 12.4349 21.7569 11.9659 21.3441 12.0221C20.9314 12.0972 20.9314 12.6412 21.0627 13.3353C21.119 13.748 21.2691 14.0857 21.4755 14.2921Z" fill="white"></path><path d="M17.8362 14.911C18.1176 15.0423 18.3239 15.1173 18.3802 15.0423C18.4553 14.9672 18.3802 14.911 18.3052 14.7609C18.1739 14.4795 17.8174 14.2731 17.5548 14.1418C16.8607 13.8604 16.1103 13.9355 15.4912 14.4232C15.2849 14.5545 15.0785 14.7609 15.1536 14.911C15.1536 14.986 15.2286 14.986 15.2849 14.986C15.4162 14.986 16.0353 14.7046 16.7294 14.6483C17.1421 14.6296 17.5548 14.7796 17.8362 14.911Z" fill="white"></path><path d="M17.217 15.2489C16.8043 15.3239 16.5979 15.4553 16.4666 15.5866C16.3353 15.7179 16.2603 15.7929 16.2603 15.868V15.943H16.3353C16.4103 15.943 16.6167 15.868 16.6167 15.868C17.1607 15.6616 17.5171 15.6616 17.8548 15.7367C18.0612 15.7367 18.1362 15.8117 18.1925 15.7367C18.1925 15.7367 18.1925 15.6616 18.1925 15.6053C18.1737 15.399 17.761 15.1926 17.217 15.2489Z" fill="white"></path><path d="M17.4235 15.7365C17.5548 15.4551 17.5548 14.8361 17.4235 14.3671C17.2922 13.673 17.0858 13.2603 16.598 13.2603C16.1853 13.3353 16.1853 13.8793 16.3167 14.6297C16.3917 15.1175 16.598 15.3801 16.6543 15.5864C17.0108 16.1492 17.2171 15.9992 17.4235 15.7365Z" fill="white"></path><path d="M20.2373 16.4868C20.5187 16.6181 20.7814 16.5618 20.9314 16.3555C21.0065 16.1491 20.8564 15.8677 20.5938 15.7364C20.3124 15.6051 20.0497 15.6614 19.8997 15.8677C19.7496 16.0741 19.9559 16.3555 20.2373 16.4868Z" fill="white"></path><path d="M21.9446 14.9861C21.7382 14.9861 21.5319 15.1924 21.5319 15.5301C21.5319 15.8115 21.6632 16.0741 21.9446 16.0741C22.1509 16.0741 22.3573 15.8678 22.3573 15.5301C22.301 15.2487 22.1509 14.9861 21.9446 14.9861Z" fill="white"></path><path d="M7.40593 20.3326C7.33089 20.2576 7.27461 20.2576 7.19957 20.3326C7.12453 20.3326 7.06825 20.3326 6.99322 20.3326C6.8619 20.3326 6.71182 20.2576 6.65554 20.1263C6.59926 19.995 6.5805 19.7886 6.65554 19.5072L6.73058 19.3759C6.93694 18.9632 7.21833 18.3441 6.8619 17.725C6.5805 17.2373 6.24283 16.9747 5.75508 16.8996C5.26733 16.8246 4.79834 17.0309 4.51694 17.3874C4.02919 17.9314 3.97291 18.6255 4.02919 18.8881C4.02919 18.9632 4.10423 19.0195 4.16051 19.0195C4.23555 19.0195 4.36687 18.9444 4.44191 18.7381V18.663C4.44191 18.5317 4.51694 18.3816 4.64826 18.1753C4.77958 17.9689 4.98593 17.8376 5.19229 17.8376C5.39865 17.7626 5.68004 17.8376 5.8864 17.9689C6.22407 18.1753 6.37415 18.588 6.22407 19.0007C6.01771 19.207 5.94268 19.5447 5.94268 19.9012C6.01771 20.5202 6.43043 20.8016 6.7681 20.8579C7.10577 20.8579 7.38717 20.6515 7.38717 20.5202C7.46221 20.4077 7.40593 20.4077 7.40593 20.3326Z" fill="white"></path><path d="M27.3661 19.1695C27.3661 19.0945 27.291 18.8319 27.1597 18.4191L26.8783 17.8001C27.3661 17.106 27.3661 16.4306 27.291 16.093C27.216 15.6802 27.0097 15.2675 26.672 14.8548C26.3343 14.4421 25.5089 14.0294 24.4771 13.748L23.9331 13.6167C23.9331 13.6167 23.9331 12.3035 23.858 11.7595C23.858 11.3468 23.783 10.7277 23.5766 10.1086C23.3703 9.2832 22.9576 8.53282 22.4135 8.04507C23.783 6.60057 24.6835 4.94972 24.6835 3.58027C24.6835 0.972679 21.4568 0.147255 17.4047 1.7981L16.5793 2.13578C16.5793 2.13578 15.0785 0.635006 15.0035 0.635006C10.5575 -3.34204 -3.64359 12.5099 0.877478 16.3556L1.83422 17.181C1.55282 17.8751 1.49655 18.6255 1.55282 19.4509C1.68414 20.4827 2.24693 21.5145 3.0536 22.3399C3.87902 23.0903 4.96708 23.578 6.0739 23.578C7.85606 27.7052 11.9081 30.1627 16.6356 30.3128C21.7194 30.4441 26.0342 28.0428 27.8163 23.7844C27.9476 23.503 28.4354 22.1336 28.4354 20.8954C28.5479 19.6385 27.8538 19.1695 27.3661 19.1695ZM6.50537 22.3962C6.37405 22.3962 6.1677 22.4712 6.01762 22.3962C4.51685 22.3212 2.79096 20.9517 2.65964 19.3008C2.52833 17.5187 3.41003 16.1492 5.06088 15.7928C5.26723 15.7178 5.47359 15.7178 5.75498 15.7178C6.65545 15.7928 8.0249 16.4681 8.36257 18.4567C8.62521 20.3326 8.23126 22.1148 6.50537 22.3962ZM4.79824 14.7047C3.76646 14.9111 2.88476 15.4551 2.32197 16.2805C1.9843 15.9992 1.36523 15.4551 1.29019 15.2488C0.389727 13.5979 2.24693 10.315 3.56011 8.51406C6.71173 3.99298 11.7205 0.559968 13.9905 1.16028C14.4032 1.29159 15.6413 2.73609 15.6413 2.73609C15.6413 2.73609 13.3151 4.04926 11.1765 5.83143C8.28753 7.97002 6.09266 11.1967 4.79824 14.7047ZM20.9878 21.7021L21.0628 21.627C21.0628 21.552 20.9878 21.552 20.9878 21.552C20.9878 21.552 18.5866 21.8897 16.3167 21.0643C16.5981 20.2388 17.2171 20.5202 18.2301 20.6515C20.0123 20.7829 21.6632 20.5202 22.8263 20.1638C23.858 19.8824 25.2275 19.2633 26.2593 18.4567C26.5969 19.2071 26.747 20.1075 26.747 20.1075C26.747 20.1075 27.0284 20.0325 27.2348 20.1825C27.4411 20.3139 27.5724 20.5953 27.5162 21.2894C27.3098 22.6588 26.6907 23.6906 25.809 24.7224C25.265 25.3415 24.4959 25.8855 23.6892 26.2982C23.2765 26.5045 22.7887 26.7109 22.3197 26.8422C18.6053 28.0053 14.9097 26.7672 13.7466 23.9532C13.6716 23.7469 13.5402 23.5405 13.5402 23.2591C13.0525 21.4019 13.4652 19.207 14.8534 17.8376C14.9284 17.7626 14.9847 17.6312 14.9847 17.4999C14.9847 17.3686 14.9097 17.2936 14.8534 17.2185C14.3657 16.5244 12.7336 15.3613 13.0712 13.0914C13.2776 11.4406 14.7221 10.3525 16.0165 10.4088H16.3542C16.8982 10.4088 17.461 10.5401 17.8549 10.5401C18.6053 10.5401 19.3557 10.4651 20.1811 9.78971C20.4625 9.58335 20.6689 9.377 21.0816 9.30196C21.1566 9.30196 21.2129 9.22692 21.4193 9.30196C21.6256 9.30196 21.832 9.377 21.9633 9.50832C22.6574 9.99607 22.7137 11.0091 22.7887 11.8345C22.7887 12.3223 22.8638 13.4103 22.8638 13.6917C22.9388 14.3858 23.0701 14.5171 23.4828 14.6485C23.6892 14.7235 23.8956 14.7798 24.1769 14.8548C25.0774 15.1362 25.6214 15.3426 25.9591 15.6802C26.1655 15.8866 26.2405 16.093 26.2968 16.2993C26.4281 17.0497 25.6777 18.0064 23.8205 18.9069C21.757 19.8636 19.3557 20.07 17.6486 19.8636L17.0295 19.7886C15.6601 19.5822 14.9097 21.3644 15.7164 22.5275C16.2604 23.2779 17.7049 23.8407 19.0743 23.8407C22.376 23.8407 24.9086 22.4712 25.809 21.2331L25.8841 21.1018C25.9591 21.0267 25.8841 20.9705 25.809 21.0267C25.0587 21.5708 21.6256 23.6343 17.9863 23.0153C17.9863 23.0153 17.5736 22.9402 17.1608 22.8089C16.8232 22.6776 16.2041 22.3962 16.054 21.7021C19.1306 22.6025 20.9878 21.7021 20.9878 21.7021ZM10.6888 8.53281C11.7956 7.21964 13.2213 6.05654 14.4595 5.43747C14.5345 5.43747 14.5345 5.43748 14.5345 5.51252C14.4595 5.71887 14.2531 6.05654 14.1968 6.33794C14.1968 6.41298 14.2719 6.41298 14.2719 6.41298C15.0222 5.86895 16.3917 5.30615 17.5736 5.24988C17.6486 5.24988 17.6486 5.32492 17.6486 5.32492C17.4422 5.45624 17.3109 5.66259 17.1046 5.86895C17.1046 5.86895 17.1046 5.94398 17.1796 5.94398C18.005 5.94398 19.1681 6.22538 19.9185 6.69437C19.9935 6.69437 19.9185 6.82569 19.8435 6.82569C18.6804 6.5443 16.8232 6.33794 14.8346 6.82569C13.0525 7.2384 11.7393 7.93251 10.7826 8.60786C10.6888 8.5891 10.6325 8.58909 10.6888 8.53281Z" fill="white"></path><path d="M108.914 11.6094C107.207 11.6094 106.438 12.8475 106.1 13.5979C105.894 14.0856 105.894 14.217 105.762 14.217C105.556 14.217 105.687 13.8043 105.837 13.3915C106.044 12.4911 105.912 11.8157 105.912 11.8157H103.511V23.3529H106.813V19.7135C107.226 20.4076 107.92 21.083 109.008 21.083C111.409 21.083 112.572 19.0945 112.572 16.3556C112.553 13.2602 111.109 11.6094 108.914 11.6094ZM108.032 18.8881C107.282 18.8881 106.719 17.9314 106.719 16.6182C106.719 15.305 107.263 14.3483 108.032 14.3483C108.933 14.3483 109.345 15.1737 109.345 16.6182C109.327 18.1377 108.989 18.8881 108.032 18.8881Z" fill="white"></path><path d="M43.6492 11.6095C42.2047 11.6095 41.5294 12.7726 41.173 13.4667C40.9666 13.8794 40.9666 14.217 40.7603 14.217C40.5539 14.217 40.6852 13.9356 40.5539 13.3166C40.3475 12.4912 39.6534 11.6095 38.2277 11.6095C36.7269 11.6095 36.0328 12.9226 35.7514 13.598C35.5451 14.0857 35.5451 14.217 35.4138 14.217C35.2074 14.217 35.3387 13.8043 35.4888 13.3916C35.6951 12.4912 35.5638 11.8158 35.5638 11.8158H33.1626V20.8767H36.3893V16.3556C36.3893 15.4552 36.7269 14.3671 37.421 14.3671C38.1714 14.3671 38.3215 14.9111 38.3215 15.9429V20.8767H41.6232V16.3556C41.6232 15.5302 41.9609 14.3671 42.655 14.3671C43.4054 14.3671 43.5554 15.1925 43.5554 15.9429V20.8204H46.7071V15.4739C46.6695 13.129 45.8441 11.6095 43.6492 11.6095ZM99.3841 11.6095C97.9396 11.6095 97.2643 12.7726 96.9078 13.4667C96.7015 13.8794 96.7015 14.217 96.4951 14.217C96.2888 14.217 96.4201 13.8794 96.2888 13.3166C96.0074 12.4912 95.4634 11.6095 93.9626 11.6095C92.4618 11.6095 91.7677 12.9226 91.4863 13.598C91.28 14.0857 91.28 14.217 91.1486 14.217C90.9423 14.217 91.0736 13.8043 91.2237 13.3916C91.43 12.4912 91.2987 11.8158 91.2987 11.8158H88.8975V20.8767H92.1992V16.3556C92.1992 15.4552 92.5369 14.3671 93.231 14.3671C93.9813 14.3671 94.1314 14.9111 94.1314 15.9429V20.8767H97.4331V16.3556C97.4331 15.5302 97.7708 14.3671 98.4649 14.3671C99.2153 14.3671 99.3654 15.1925 99.3654 15.9429V20.8204H102.592V15.4739C102.404 13.129 101.579 11.6095 99.3841 11.6095ZM52.2974 11.6095C49.7649 11.6095 47.964 12.5099 47.964 12.5099V15.2488C47.964 15.2488 49.9525 14.0857 51.6033 14.0857C52.9165 14.0857 53.0478 14.7798 52.9728 15.3989C52.9728 15.3989 52.6351 15.3239 51.472 15.3239C48.7894 15.3239 47.4199 16.562 47.4199 18.4755C47.4199 20.3327 48.9207 21.0831 50.2339 21.0831C52.0911 21.0831 52.9165 19.8449 53.1791 19.2259C53.3855 18.8132 53.3855 18.5318 53.5168 18.5318C53.7232 18.5318 53.6481 18.7381 53.6481 19.1508C53.6481 19.8449 53.6481 20.389 53.7794 20.858H56.2745V16.3932C56.1994 13.598 55.2427 11.6095 52.2974 11.6095ZM51.472 18.7569C50.7216 18.9632 50.3089 18.6818 50.3089 18.2128C50.3089 17.5187 51.0593 17.1811 52.0911 17.1811C52.5788 17.1811 52.9915 17.2561 52.9915 17.2561C52.9728 17.5187 52.2974 18.5505 51.472 18.7569ZM61.621 9.0769H64.9227V20.8767H61.621C61.621 20.8204 61.621 9.0769 61.621 9.0769ZM68.562 16.3556C68.562 15.5302 69.3124 14.7798 70.6819 14.7798C72.1826 14.7798 73.4208 15.5302 73.7022 15.6803V12.5099C73.7022 12.5099 72.7454 11.6095 70.4005 11.6095C67.9242 11.6095 65.8794 13.0539 65.8794 16.2056C65.8794 19.3572 67.7366 21.0831 70.4005 21.0831C72.464 21.0831 73.7585 19.92 73.7585 19.92V16.8997C73.3457 17.106 72.2577 17.8564 70.7382 17.8564C69.1061 17.9315 68.562 17.1811 68.562 16.3556ZM80.3618 11.6095C78.4484 11.6095 77.7543 13.3916 77.6229 13.7293C77.4916 14.067 77.4166 14.217 77.2853 14.217C77.0789 14.217 77.2102 13.8043 77.2853 13.598C77.4166 13.1102 77.773 11.9471 77.773 10.4464C77.773 9.41458 77.6417 9.0769 77.6417 9.0769H74.8278V20.8767H78.1294V16.3556C78.1294 15.6053 78.4108 14.3671 79.2363 14.3671C79.9304 14.3671 80.1367 14.8549 80.1367 15.8679V20.8767H83.4384V16.0742C83.3071 13.7481 82.9694 11.6095 80.3618 11.6095ZM84.4139 11.8158V20.8767H87.7156V11.8158C87.7156 11.8158 87.1716 12.1535 86.0648 12.1535C84.958 12.0972 84.4139 11.8158 84.4139 11.8158Z" fill="white"></path><path d="M86.0648 11.5531C87.163 11.5531 88.0533 10.9652 88.0533 10.2399C88.0533 9.51469 87.163 8.92676 86.0648 8.92676C84.9666 8.92676 84.0763 9.51469 84.0763 10.2399C84.0763 10.9652 84.9666 11.5531 86.0648 11.5531Z" fill="white"></path><path d="M57.3063 11.8157V20.8766H60.5892V11.8157C60.5892 11.8157 60.0452 12.1534 58.9384 12.1534C58.9384 12.0971 57.3063 11.8157 57.3063 11.8157Z" fill="white"></path><path d="M58.9384 11.5531C60.0366 11.5531 60.9269 10.9652 60.9269 10.2399C60.9269 9.51469 60.0366 8.92676 58.9384 8.92676C57.8401 8.92676 56.9498 9.51469 56.9498 10.2399C56.9498 10.9652 57.8401 11.5531 58.9384 11.5531Z" fill="white"></path></svg>