<svg xmlns="http://www.w3.org/2000/svg" width="156" height="37" viewBox="0 0 156 37" fill="none"><path fill-rule="evenodd" clip-rule="evenodd" d="M4.25638 1.18859C2.9308 1.83114 1.43069 2.55187 0.923107 2.79032L0 3.22349L0.00270778 6.31065L0.0051694 9.39781L8.31067 12.4361C12.8784 14.1072 16.9482 15.6054 17.3544 15.7654C18.0355 16.0336 18.8009 15.7959 27.2009 12.707L36.3089 9.35774V6.32384V3.28994L32.9121 1.64497L29.5153 0L23.8947 2.07252C20.8034 3.21249 18.1909 4.14504 18.089 4.14504C17.987 4.14504 15.7864 3.36177 13.1982 2.4043C10.6101 1.44683 8.08174 0.518924 7.57957 0.34204C6.69954 0.0320052 6.5799 0.0625446 4.25638 1.18859ZM12.4548 2.78592L18.1187 4.84745L23.7938 2.76931L29.469 0.691166L32.2174 1.99068L34.966 3.28994L26.5426 6.35511L18.1192 9.42028L13.1829 7.61211C10.4678 6.61775 7.19408 5.42403 5.90788 4.95959C1.83514 3.48881 1.46417 3.34345 1.55328 3.255C1.6739 3.13504 6.49153 0.762994 6.6572 0.741739C6.7308 0.732455 9.33987 1.6523 12.4548 2.78592ZM9.04965 23.4176L0.00664637 26.7441L0.0032001 29.8056L0 32.8669L3.1974 34.4386C4.95573 35.303 6.59295 35.9956 6.83517 35.9773C7.07764 35.9592 9.66308 35.0562 12.5803 33.9707C15.4979 32.885 17.9725 31.9969 18.0796 31.9969C18.1864 31.9969 20.8034 32.9295 23.8947 34.0694L29.5153 36.1419L32.9121 34.497L36.3089 32.852V29.8096V26.7674L35.2011 26.3674C33.9213 25.9054 19.6284 20.6658 18.7083 20.3214C18.1978 20.1301 16.5509 20.658 9.04965 23.4176ZM28.0107 30.3253L34.9747 32.852L32.2172 34.1535L29.4594 35.4552L25.9917 34.1786C24.0842 33.4767 21.5384 32.5398 20.3339 32.0963L18.1443 31.2906L12.4568 33.3695L6.76945 35.4481L4.12321 34.2026C2.66766 33.5175 1.47697 32.9238 1.47697 32.8833C1.47697 32.8425 3.38768 32.1115 5.72326 31.2588C8.0586 30.4062 11.7973 29.0346 14.0312 28.2108L18.0929 26.7129L19.5699 27.2557C20.3822 27.5545 24.1807 28.9356 28.0107 30.3253Z" fill="white"></path><path d="M53.0995 9.17899C53.0995 10.1705 52.5587 10.7654 51.405 10.7654H49.4941V7.62868H51.405C52.5587 7.62868 53.0995 8.24159 53.0995 9.17899ZM46.4115 5.06885V17.7238H49.4941V12.9466H50.2332L52.8651 17.7238H56.3443L53.424 12.7123C55.3709 12.1354 56.2362 10.6392 56.2362 9.05281C56.2362 6.85352 54.6859 5.06885 51.5852 5.06885H46.4115Z" fill="white"></path><path d="M63.5433 5.06885H58.8022V17.7238H63.5433C67.5813 17.7238 70.1772 15.1459 70.1772 11.3963C70.1772 7.62868 67.5813 5.06885 63.5433 5.06885ZM61.8848 15.0558V7.70079H63.345C65.6705 7.70079 67.0405 9.07083 67.0405 11.3963C67.0405 13.7218 65.6705 15.0558 63.345 15.0558H61.8848Z" fill="white"></path><path d="M86.3806 14.0823C86.3806 9.6477 79.9269 11.0538 79.9269 8.53003C79.9269 7.50249 80.6661 7.01576 81.6575 7.05182C82.7391 7.06984 83.4061 7.71881 83.4602 8.54805H86.2364C86.0741 6.27666 84.3075 4.96069 81.7296 4.96069C79.1338 4.96069 77.295 6.33074 77.295 8.60213C77.277 13.1629 83.7667 11.5225 83.7667 14.2446C83.7667 15.1459 83.0636 15.7769 81.8739 15.7769C80.7021 15.7769 80.0351 15.1099 79.963 14.1003H77.259C77.295 16.4799 79.314 17.85 81.9279 17.85C84.7942 17.85 86.3806 16.0653 86.3806 14.0823Z" fill="white"></path><path d="M88.5326 7.17801H91.8856V17.7238H94.4093V7.17801H97.7623V5.14096H88.5326V7.17801Z" fill="white"></path><path d="M108.779 17.7238H111.447L106.923 5.12293H103.984L99.4595 17.7238H102.11L102.939 15.3262H107.95L108.779 17.7238ZM107.265 13.3072H103.624L105.444 8.0433L107.265 13.3072Z" fill="white"></path><path d="M113.103 7.17801H116.456V17.7238H118.979V7.17801H122.332V5.14096H113.103V7.17801Z" fill="white"></path><path d="M124.805 17.7238H127.329V5.14096H124.805V17.7238Z" fill="white"></path><path d="M142.729 11.3963C142.729 7.62868 139.881 4.96069 136.294 4.96069C132.742 4.96069 129.84 7.62868 129.84 11.3963C129.84 15.182 132.742 17.85 136.294 17.85C139.863 17.85 142.729 15.182 142.729 11.3963ZM132.436 11.3963C132.436 8.83648 134.004 7.23209 136.294 7.23209C138.565 7.23209 140.134 8.83648 140.134 11.3963C140.134 13.9561 138.565 15.5966 136.294 15.5966C134.004 15.5966 132.436 13.9561 132.436 11.3963Z" fill="white"></path><path d="M153.476 5.12293V13.7759L147.762 5.12293H145.238V17.7238H147.762V9.08886L153.476 17.7238H156V5.12293H153.476Z" fill="white"></path><path d="M45.8503 27.5369C45.8503 30.6811 48.2423 32.8776 51.191 32.8776C53.3724 32.8776 55.2529 31.7944 56.0502 29.7484H53.9892C53.4326 30.8617 52.4396 31.3882 51.191 31.3882C49.1149 31.3882 47.6105 29.8989 47.6105 27.5369C47.6105 25.175 49.1149 23.7007 51.191 23.7007C52.4396 23.7007 53.4326 24.2272 53.9892 25.3405H56.0502C55.2529 23.2945 53.3724 22.1963 51.191 22.1963C48.2423 22.1963 45.8503 24.4078 45.8503 27.5369Z" fill="white"></path><path d="M63.3833 25.4609C63.3833 26.4989 62.7815 27.2361 61.4426 27.2361H59.547V23.7308H61.4426C62.7815 23.7308 63.3833 24.4078 63.3833 25.4609ZM57.832 22.3317V32.7873H59.547V28.6051H60.8559L63.2629 32.7873H65.3089L62.7213 28.4546C64.4815 28.0183 65.1434 26.6945 65.1434 25.4609C65.1434 23.7609 63.9249 22.3317 61.4426 22.3317H57.832Z" fill="white"></path><path d="M67.1117 32.7873H68.8268V25.6263L72.0311 32.7873H73.2196L76.409 25.6263V32.7873H78.124V22.3317H76.2886L72.6329 30.5307L68.9622 22.3317H67.1117V32.7873Z" fill="white"></path></svg>