<svg xmlns="http://www.w3.org/2000/svg" width="161" height="36" viewBox="0 0 161 36" fill="none"><path d="M18.9609 0C19.8819 0.16993 20.8082 0.301493 21.7018 0.504313C24.8571 1.21566 27.758 2.77596 30.0908 5.01655C32.4236 7.25713 34.0996 10.0928 34.9376 13.2169C35.7756 16.341 35.7437 19.6347 34.8454 22.742C33.9471 25.8493 32.2165 28.6519 29.8407 30.8469C27.4649 33.0419 24.5343 34.5457 21.3658 35.1958C18.1972 35.8459 14.9113 35.6176 11.8631 34.5355C8.81496 33.4533 6.12058 31.5586 4.07125 29.0561C2.02192 26.5536 0.695611 23.5385 0.23571 20.3368C0.164449 19.849 0.0767427 19.3666 0 18.8787V16.7299C0.0764811 16.4972 0.135121 16.259 0.175412 16.0173C0.543312 12.3117 2.07307 8.81711 4.54609 6.03299C7.01911 3.24887 10.3089 1.31765 13.9453 0.515274C14.8881 0.312454 15.8364 0.16993 16.7847 0H18.9609ZM13.6876 24.7441C13.1946 25.3153 12.6556 25.8451 12.076 26.3282C11.3689 26.8435 10.5302 27.1779 9.77373 27.6274C9.53254 27.7644 9.19816 28.0111 9.19268 28.2139C9.22145 28.356 9.28169 28.4898 9.36896 28.6055C9.45623 28.7213 9.56832 28.816 9.69699 28.8827C10.1088 29.1071 10.5554 29.2608 11.0181 29.3377C12.2863 29.5181 13.5794 29.3079 14.7252 28.735C15.8709 28.1621 16.815 27.2538 17.4316 26.1309C17.5686 25.8842 17.7111 25.643 17.8865 25.3251C18.0839 25.6924 18.2209 25.961 18.3689 26.2241C19.7996 28.7237 23.0064 30.0612 25.4676 29.1458C25.8853 28.9131 26.2659 28.6194 26.5968 28.2742C26.2874 27.9654 25.9435 27.6931 25.5718 27.4629C24.097 26.8735 22.8487 25.8289 22.0087 24.4809C24.2452 26.0596 25.8459 26.405 27.7754 25.643C28.3556 25.3959 28.8727 25.0211 29.2883 24.5467C29.7214 24.0589 29.4692 23.5929 28.8114 23.5162C28.4003 23.4668 27.9837 23.5162 27.5671 23.4668C24.6235 23.275 22.4582 20.9288 22.8419 18.2154C23.0169 17.4102 23.3244 16.6396 23.7519 15.9351C24.5191 14.6103 24.8056 13.0614 24.5632 11.5498C23.9657 8.26081 21.5866 6.29291 17.9852 6.16683C16.3773 6.06099 14.7879 6.56016 13.5292 7.56631C12.2705 8.57245 11.4335 10.0129 11.1825 11.6046C10.8427 13.43 11.4621 15.0251 12.3501 16.5381C14.0878 19.553 11.8951 22.6665 9.24202 23.2531C8.50679 23.3694 7.7656 23.4445 7.02196 23.4778C6.21068 23.56 5.9969 23.9876 6.4738 24.6344C6.65559 24.8768 6.88272 25.0816 7.14256 25.2374C7.64065 25.5684 8.19938 25.7974 8.78647 25.9112C9.37356 26.0251 9.97739 26.0215 10.5631 25.9007C11.6261 25.576 12.6694 25.1898 13.6876 24.7441V24.7441Z" fill="white"></path><path d="M55.9457 18.0181C55.9528 19.1193 55.8703 20.2193 55.699 21.3071C55.3691 22.5989 54.7113 23.7837 53.7893 24.7467C52.8674 25.7098 51.7124 26.4186 50.4362 26.8045C49.16 27.1904 47.8058 27.2403 46.5047 26.9494C45.2035 26.6586 43.9995 26.0368 43.0091 25.1442C42.1762 24.4341 41.5141 23.5454 41.0718 22.5442C40.6296 21.543 40.4186 20.455 40.4546 19.3611C40.4546 18.0949 40.4546 16.8176 40.5478 15.5569C40.9863 10.3987 47.6739 6.78628 52.8321 10.5193C53.8076 11.1607 54.6009 12.0433 55.1348 13.0815C55.6688 14.1197 55.9255 15.2783 55.8799 16.4449C55.8799 16.9931 55.8799 17.4919 55.8799 18.0181H55.9457ZM44.3356 18.0181C44.3356 18.5937 44.3356 19.1748 44.3356 19.7503C44.3283 20.2679 44.4241 20.7818 44.6173 21.262C44.8106 21.7422 45.0974 22.1792 45.4611 22.5476C45.8248 22.9159 46.2582 23.2082 46.736 23.4074C47.2137 23.6066 47.7264 23.7088 48.244 23.7081C49.2755 23.6766 50.2539 23.2436 50.9707 22.5012C51.6874 21.7588 52.0859 20.7658 52.0812 19.7339C52.0812 18.5791 52.0812 17.4243 52.0812 16.2695C52.0531 15.2545 51.6417 14.2877 50.9299 13.5637C50.218 12.8396 49.2584 12.4119 48.244 12.3666C47.2255 12.3803 46.2518 12.7873 45.5264 13.5025C44.801 14.2176 44.3803 15.1855 44.3521 16.2037C44.3192 16.8286 44.3356 17.4316 44.3356 18.0181Z" fill="white"></path><path d="M95.3199 24.2397C95.1831 24.5751 94.9985 24.889 94.7718 25.1715C92.8642 26.9202 90.6605 27.6492 88.1225 26.816C87.238 26.5531 86.4651 26.0053 85.9239 25.2579C85.3826 24.5105 85.1034 23.6053 85.1296 22.6829C85.0802 20.0462 85.8806 18.6922 87.9362 17.8536C89.9918 17.0149 92.2118 17.0258 94.3935 16.9381C95.605 16.8943 95.6982 16.823 95.5337 15.6664C95.1281 12.7995 93.2369 11.4729 90.4029 12.1307C89.6828 12.3279 88.9834 12.5941 88.3144 12.9256C87.6456 13.2271 87.0482 13.3531 86.5877 12.6022C86.3536 12.2761 86.2408 11.8785 86.2689 11.4781C86.2969 11.0778 86.464 10.6998 86.7412 10.4095C87.0631 10.1487 87.4213 9.93635 87.8046 9.77912C90.0442 8.82686 92.5475 8.69296 94.8759 9.40089C96.185 9.83434 97.3235 10.6705 98.1289 11.7899C98.9342 12.9093 99.365 14.2545 99.3599 15.6335C99.4037 18.8348 99.3599 22.036 99.3599 25.2373C99.3599 26.2898 98.7569 26.7941 97.5619 26.7941C96.3669 26.7941 95.8187 26.3391 95.7804 25.2373C95.7804 24.9961 95.7475 24.7549 95.731 24.5137L95.3199 24.2397ZM93.955 19.0157C91.9652 19.0157 90.8743 19.2569 90.0356 19.8269C89.5795 20.1001 89.2297 20.52 89.0435 21.018C88.8572 21.5159 88.8456 22.0624 89.0106 22.5678C89.139 23.0665 89.4305 23.5079 89.8388 23.8218C90.2471 24.1357 90.7486 24.304 91.2635 24.3C92.2478 24.2829 93.1977 23.9351 93.9603 23.3127C94.7229 22.6903 95.254 21.8293 95.4679 20.8684C95.7913 19.1143 95.6982 19.0047 93.955 19.0157Z" fill="white"></path><path d="M77.9597 17.0916C77.9597 18.4182 77.9597 19.7447 77.9597 21.0658C77.9597 22.7103 78.6943 23.4887 80.3552 23.6367C80.9637 23.686 81.5776 23.6367 82.1806 23.6805C82.3834 23.6743 82.5851 23.7127 82.7715 23.7929C82.9578 23.8732 83.1243 23.9933 83.2592 24.1449C83.394 24.2965 83.494 24.4758 83.552 24.6703C83.61 24.8647 83.6246 25.0695 83.5948 25.2702C83.6188 25.4714 83.598 25.6754 83.5339 25.8676C83.4699 26.0598 83.3641 26.2355 83.2243 26.3821C83.0845 26.5287 82.914 26.6427 82.7251 26.7158C82.5361 26.7889 82.3333 26.8194 82.1312 26.805C80.9426 26.8458 79.7526 26.7871 78.5737 26.6296C75.7835 26.1582 74.2487 24.4699 74.2158 21.6304C74.1336 14.9812 74.1829 8.33196 74.1829 1.68275C74.1829 0.750875 74.8407 0.487759 75.5807 0.323311C77.0498 -0.000105243 77.9543 0.707022 77.9597 2.17062C77.9597 4.20978 77.9597 6.25443 77.9597 8.29359C77.9597 9.00621 78.1954 9.29125 78.919 9.26932C80.0811 9.23643 81.2487 9.26932 82.4108 9.26932C83.2769 9.26932 83.6168 9.67496 83.6332 10.5794C83.6497 11.4839 83.2879 12.0047 82.4327 12.0321C81.2706 12.065 80.103 12.0869 78.9464 12.0321C78.1516 11.9937 77.9378 12.3171 77.9597 13.0407C77.9871 14.3892 77.9597 15.7431 77.9597 17.0916Z" fill="white"></path><path d="M58.2916 18.0729C58.201 16.9194 58.212 15.7601 58.3245 14.6085C58.9658 11.1003 61.46 9.15978 65.3081 8.99534C67.0825 8.83913 68.8628 9.22117 70.417 10.0917C71.5133 10.7495 71.7928 11.5224 71.3324 12.4981C70.9103 13.3916 70.3238 13.5615 69.3809 13.26C68.2889 12.8214 67.1415 12.5355 65.9714 12.4104C63.3785 12.3172 61.9972 13.7972 61.9753 16.3955C61.9753 17.585 61.9753 18.7691 61.9753 19.9531C62.0191 22.2718 63.4005 23.6258 65.7192 23.7135C66.9108 23.7889 68.0996 23.5287 69.1507 22.9625C70.2854 22.3431 70.9816 22.5021 71.5023 23.3791C71.6377 23.5755 71.7278 23.7994 71.7661 24.0348C71.8045 24.2702 71.7901 24.5112 71.724 24.7403C71.6579 24.9695 71.5418 25.1811 71.384 25.36C71.2263 25.5388 71.0308 25.6804 70.8116 25.7746C69.8835 26.3158 68.8778 26.7115 67.8296 26.9477C66.0043 27.354 64.1003 27.2226 62.348 26.5694C59.7442 25.5773 58.5109 23.5162 58.2149 20.8631C58.1628 19.9264 58.1628 18.9876 58.2149 18.051L58.2916 18.0729Z" fill="white"></path><path d="M113.311 24.4373C113.202 24.6265 113.083 24.8095 112.954 24.9855C112.02 26.1019 110.711 26.8392 109.272 27.0592C107.832 27.2792 106.363 26.9668 105.137 26.1804C104.1 25.5842 103.241 24.7215 102.649 23.6815C102.057 22.6415 101.754 21.4622 101.772 20.2658C101.772 18.254 101.635 16.2039 101.986 14.236C102.687 10.344 107.16 7.99789 110.712 9.55467C111.71 9.98772 112.538 10.8209 113.486 11.5061C113.486 11.3252 113.541 11.0457 113.541 10.7661C113.541 7.78959 113.541 4.80759 113.541 1.82558C113.541 1.5515 113.453 1.21164 113.579 1.0143C113.766 0.687078 114.069 0.442385 114.429 0.329102C114.648 0.329102 114.977 0.729257 115.152 1.01978C115.262 1.20616 115.185 1.50765 115.185 1.75432C115.185 9.61497 115.185 17.472 115.185 25.3253C115.185 25.9228 115.405 26.6957 114.429 26.7944C113.787 26.8547 113.574 26.471 113.563 25.3308C113.563 25.0732 113.53 24.81 113.519 24.5469L113.311 24.4373ZM113.541 18.4897C113.541 17.525 113.541 16.5602 113.541 15.5954C113.513 14.3111 112.992 13.0867 112.086 12.1763C111.179 11.2659 109.957 10.7393 108.673 10.7058C107.363 10.6961 106.098 11.1882 105.139 12.0811C104.18 12.974 103.599 14.2 103.515 15.5077C103.444 16.8288 103.438 18.1499 103.422 19.4764C103.422 21.2854 103.86 22.9189 105.269 24.1632C105.933 24.8213 106.781 25.2622 107.701 25.4276C108.621 25.5931 109.57 25.4752 110.422 25.0896C111.326 24.7444 112.107 24.1368 112.664 23.3447C113.221 22.5525 113.528 21.612 113.546 20.644C113.546 19.9259 113.541 19.2078 113.541 18.4897Z" fill="white"></path><path d="M152.521 16.856C151.271 17.9523 150.109 18.9061 148.996 19.9367C148.804 20.1994 148.713 20.5223 148.738 20.8466C148.738 22.4473 148.738 24.0479 148.738 25.6485C148.738 26.246 148.656 26.7942 147.889 26.7997C147.121 26.8052 147.012 26.2515 147.012 25.6595C147.012 17.5686 147.012 9.4814 147.012 1.39783C147.012 0.77841 147.193 0.252172 147.916 0.274099C148.64 0.296025 148.749 0.822262 148.749 1.45265C148.749 6.52863 148.749 11.6065 148.749 16.6861V17.892C149.265 17.4919 149.632 17.2342 149.972 16.9437L158.156 9.81761C158.282 9.70798 158.408 9.51064 158.534 9.51064C158.914 9.51346 159.293 9.54093 159.669 9.59286C159.636 9.96013 159.74 10.4754 159.537 10.6892C158.485 11.7088 157.345 12.6406 156.248 13.6054C155.623 14.1536 155.015 14.7017 154.363 15.2499C153.902 15.6172 153.88 15.9351 154.22 16.4285C156.204 19.2899 158.161 22.1677 160.124 25.0456C160.261 25.2484 160.502 25.4567 160.507 25.665C160.547 26.0364 160.462 26.4104 160.266 26.7284C159.937 27.1067 159.482 26.9477 159.203 26.5585C158.561 25.665 157.937 24.7496 157.312 23.8177C155.912 21.7785 154.527 19.7357 153.157 17.6892C152.965 17.47 152.778 17.2068 152.521 16.856Z" fill="white"></path><path d="M124.959 18.5663C123.49 18.5663 122.021 18.5663 120.574 18.5663C119.9 18.5663 119.68 18.8184 119.653 19.4927C119.582 21.6853 120.201 23.4943 122.191 24.607C123.233 25.2253 124.419 25.5584 125.631 25.5728C126.842 25.5873 128.036 25.2825 129.092 24.6893C129.312 24.5741 129.498 24.3329 129.717 24.3001C130.083 24.2826 130.45 24.2972 130.814 24.3439C130.764 24.7441 130.857 25.369 130.644 25.506C129.784 26.0933 128.839 26.5444 127.843 26.8435C126.657 27.1693 125.416 27.2351 124.203 27.0364C122.99 26.8377 121.834 26.3793 120.815 25.6924C119.959 25.1721 119.251 24.4417 118.757 23.5706C118.263 22.6994 117.999 21.7165 117.992 20.7151C117.965 18.8952 117.948 17.0698 117.992 15.2334C118.096 12.0322 120.947 9.30233 124.164 9.06662C128.27 8.76513 131.329 11.8403 131.493 15.1512C131.526 15.8378 131.466 16.5257 131.312 17.1959C131.104 18.1058 130.364 18.4621 129.498 18.4841C127.974 18.5224 126.45 18.4841 124.932 18.4841L124.959 18.5663ZM124.274 17.2288C125.266 17.2288 126.264 17.2288 127.256 17.2288C127.834 17.216 128.411 17.1647 128.983 17.0753C129.242 17.0332 129.478 16.8994 129.647 16.6982C129.816 16.497 129.907 16.2417 129.904 15.9789C129.94 15.2654 129.828 14.552 129.574 13.8841C129.32 13.2162 128.93 12.6084 128.429 12.0991C127.928 11.5898 127.326 11.1902 126.662 10.9255C125.999 10.6609 125.287 10.5371 124.573 10.5618C123.859 10.5866 123.158 10.7594 122.514 11.0694C121.87 11.3794 121.298 11.8197 120.833 12.3625C120.369 12.9053 120.022 13.5387 119.815 14.2226C119.608 14.9065 119.545 15.6259 119.631 16.3353C119.675 16.9985 119.845 17.2836 120.541 17.2616C121.785 17.2123 123.008 17.2397 124.274 17.2397V17.2288Z" fill="white"></path><path d="M139.37 8.9624C140.467 9.19263 141.519 9.40641 142.588 9.66405C142.917 9.71938 143.22 9.87662 143.454 10.1135C143.625 10.4404 143.736 10.7949 143.783 11.1605C143.475 11.3101 143.139 11.3959 142.797 11.4127C141.47 11.177 140.171 10.6891 138.85 10.6124C138.011 10.5582 137.18 10.8116 136.515 11.3251C135.849 11.8386 135.393 12.5771 135.232 13.4025C135.093 13.9013 135.126 14.4322 135.325 14.9102C135.523 15.3882 135.877 15.7857 136.328 16.0392C137.146 16.498 138.002 16.8833 138.888 17.1903C139.688 17.4973 140.533 17.6782 141.344 17.9523C141.972 18.1513 142.551 18.4803 143.044 18.9178C143.537 19.3554 143.932 19.8916 144.204 20.4918C144.476 21.092 144.618 21.7427 144.622 22.4016C144.626 23.0605 144.492 23.7129 144.227 24.3164C143.967 24.9013 143.578 25.4197 143.089 25.8326C142.6 26.2456 142.024 26.5425 141.404 26.7009C140.283 27.0671 139.099 27.2072 137.923 27.1131C136.747 27.019 135.601 26.6926 134.552 26.1528C134.208 25.975 133.889 25.7519 133.604 25.4895C133.215 25.1277 132.973 24.6563 133.341 24.1684C133.708 23.6806 134.179 23.9601 134.569 24.2452C135.418 24.8675 136.397 25.2898 137.433 25.4806C138.468 25.6714 139.534 25.6257 140.549 25.347C141.131 25.2575 141.67 24.986 142.089 24.5715C142.507 24.1569 142.784 23.6206 142.879 23.0392C142.998 22.4506 142.939 21.8397 142.707 21.2855C142.475 20.7313 142.083 20.2595 141.58 19.9311C140.936 19.5032 140.245 19.1535 139.518 18.8896C138.724 18.5826 137.874 18.3853 137.063 18.1386C134.645 17.4151 133.341 15.7761 133.56 13.7533C133.85 11.1167 135.555 9.36804 138.077 9.15974C138.493 9.12685 138.91 9.15974 139.327 9.15974L139.37 8.9624Z" fill="white"></path><path d="M20.4135 16.3243C20.4135 17.0918 19.9969 17.7331 19.4817 17.6509C18.7416 17.5358 18.6539 16.9383 18.6539 16.3353C18.6539 15.7323 18.7636 15.1403 19.4762 14.9978C19.9531 14.8991 20.4135 15.5843 20.4135 16.3243Z" fill="white"></path><path d="M17.1135 16.308C17.0806 16.9164 17.0203 17.5194 16.2913 17.651C15.776 17.7441 15.3484 17.1028 15.3429 16.3463C15.3375 15.5899 15.776 14.9101 16.2529 14.9924C16.9655 15.1239 17.0642 15.7214 17.1135 16.308Z" fill="white"></path></svg>