<svg xmlns="http://www.w3.org/2000/svg" width="115" height="26" viewBox="0 0 115 26" fill="none"><mask id="mask0_180_295" style="mask-type:alpha" maskUnits="userSpaceOnUse" x="16" y="5" width="8" height="16"><path d="M22.1095 16.561C22.1095 16.7854 22.196 16.8757 22.4198 16.8757H23.8119V20.4278H20.1937C18.742 20.4278 18.0646 19.7367 18.0646 18.249V9.60739C18.0646 9.37097 17.9885 9.29418 17.7542 9.29418H16.3622V5.71045H19.9759C21.4097 5.71045 22.1095 6.42418 22.1095 7.8893V16.561Z" fill="white"></path></mask><g mask="url(#mask0_180_295)"><path d="M22.1095 16.561C22.1095 16.7854 22.196 16.8757 22.4198 16.8757H23.8119V20.4278H20.1937C18.742 20.4278 18.0646 19.7367 18.0646 18.249V9.60739C18.0646 9.37097 17.9885 9.29418 17.7542 9.29418H16.3622V5.71045H19.9759C21.4097 5.71045 22.1095 6.42418 22.1095 7.8893V16.561Z" fill="white"></path></g><mask id="mask1_180_295" style="mask-type:alpha" maskUnits="userSpaceOnUse" x="23" y="5" width="17" height="21"><path d="M31.848 17.207C33.4669 17.207 35.0977 15.9467 35.0977 13.1249C35.0977 10.6509 33.8145 8.99003 31.9048 8.99003C30.3471 8.99003 28.6835 10.0832 28.6835 13.1535C28.6835 15.1035 29.6772 17.207 31.848 17.207ZM32.6731 5.37769C36.5748 5.37769 39.1978 8.46904 39.1978 13.0707C39.1978 17.6 36.436 20.7621 32.4822 20.7621C30.5992 20.7621 29.3877 19.955 28.7596 19.3708C28.764 19.5093 28.7685 19.6644 28.7685 19.8301V25.9721H24.7221V9.60738C24.7221 9.36948 24.6461 9.2942 24.4118 9.2942H23.0212V5.71045H26.4156C27.9777 5.71045 28.3761 6.50551 28.4507 7.11836C29.0878 6.40763 30.3993 5.37769 32.6731 5.37769Z" fill="white"></path></mask><g mask="url(#mask1_180_295)"><path d="M31.848 17.207C33.4669 17.207 35.0977 15.9467 35.0977 13.1249C35.0977 10.6509 33.8145 8.99003 31.9048 8.99003C30.3471 8.99003 28.6835 10.0832 28.6835 13.1535C28.6835 15.1035 29.6772 17.207 31.848 17.207ZM32.6731 5.37769C36.5748 5.37769 39.1978 8.46904 39.1978 13.0707C39.1978 17.6 36.436 20.7621 32.4822 20.7621C30.5992 20.7621 29.3877 19.955 28.7596 19.3708C28.764 19.5093 28.7685 19.6644 28.7685 19.8301V25.9721H24.7221V9.60738C24.7221 9.36948 24.6461 9.2942 24.4118 9.2942H23.0212V5.71045H26.4156C27.9777 5.71045 28.3761 6.50551 28.4507 7.11836C29.0878 6.40763 30.3993 5.37769 32.6731 5.37769Z" fill="white"></path></g><mask id="mask2_180_295" style="mask-type:alpha" maskUnits="userSpaceOnUse" x="39" y="5" width="15" height="16"><path d="M43.7572 10.9465H49.1284C48.9628 9.61843 48.0258 8.68335 46.8083 8.68335C45.2924 8.68335 44.1958 9.50249 43.7572 10.9465ZM46.8083 5.37817C50.6936 5.37817 53.3046 8.19097 53.3046 12.377C53.3046 12.8016 53.2255 13.6704 53.2181 13.7066L53.1957 13.9746H43.6065C43.9571 15.9321 45.4401 17.1804 47.4663 17.1804C49.5775 17.1804 51.1755 15.6942 51.1934 15.6807L51.4545 15.4307L53.2166 18.3805L53.0539 18.5431C52.9614 18.6335 50.7846 20.7626 47.2216 20.7626C42.6918 20.7626 39.4049 17.5267 39.4049 13.0712C39.4049 8.54181 42.4516 5.37817 46.8083 5.37817Z" fill="white"></path></mask><g mask="url(#mask2_180_295)"><path d="M43.7572 10.9465H49.1284C48.9628 9.61843 48.0258 8.68335 46.8083 8.68335C45.2924 8.68335 44.1958 9.50249 43.7572 10.9465ZM46.8083 5.37817C50.6936 5.37817 53.3046 8.19097 53.3046 12.377C53.3046 12.8016 53.2255 13.6704 53.2181 13.7066L53.1957 13.9746H43.6065C43.9571 15.9321 45.4401 17.1804 47.4663 17.1804C49.5775 17.1804 51.1755 15.6942 51.1934 15.6807L51.4545 15.4307L53.2166 18.3805L53.0539 18.5431C52.9614 18.6335 50.7846 20.7626 47.2216 20.7626C42.6918 20.7626 39.4049 17.5267 39.4049 13.0712C39.4049 8.54181 42.4516 5.37817 46.8083 5.37817Z" fill="white"></path></g><mask id="mask3_180_295" style="mask-type:alpha" maskUnits="userSpaceOnUse" x="53" y="0" width="17" height="21"><path d="M60.8008 17.207C62.357 17.207 64.0221 16.1153 64.0221 13.0435C64.0221 11.0243 63.0418 8.98999 60.856 8.98999C58.9283 8.98999 57.6333 10.6283 57.6333 13.0706C57.6333 15.5823 58.8776 17.207 60.8008 17.207ZM68.0118 16.561C68.0118 16.7854 68.0983 16.8757 68.3221 16.8757H69.6843V20.4278H66.1811C64.6681 20.4278 64.2608 19.6237 64.1788 18.9883C63.5506 19.7171 62.2645 20.7621 60.0339 20.7621C56.1308 20.7621 53.5078 17.6723 53.5078 13.0706C53.5078 8.54127 56.2457 5.37765 60.1697 5.37765C62.1765 5.37765 63.3417 6.09289 63.9385 6.63647V4.06762C63.9385 3.82971 63.8625 3.75442 63.6282 3.75442H62.2361V0.169189H65.8498C67.3031 0.169189 68.0118 0.882915 68.0118 2.34804V16.561Z" fill="white"></path></mask><g mask="url(#mask3_180_295)"><path d="M60.8008 17.207C62.357 17.207 64.0221 16.1153 64.0221 13.0435C64.0221 11.0243 63.0418 8.98999 60.856 8.98999C58.9283 8.98999 57.6333 10.6283 57.6333 13.0706C57.6333 15.5823 58.8776 17.207 60.8008 17.207ZM68.0118 16.561C68.0118 16.7854 68.0983 16.8757 68.3221 16.8757H69.6843V20.4278H66.1811C64.6681 20.4278 64.2608 19.6237 64.1788 18.9883C63.5506 19.7171 62.2645 20.7621 60.0339 20.7621C56.1308 20.7621 53.5078 17.6723 53.5078 13.0706C53.5078 8.54127 56.2457 5.37765 60.1697 5.37765C62.1765 5.37765 63.3417 6.09289 63.9385 6.63647V4.06762C63.9385 3.82971 63.8625 3.75442 63.6282 3.75442H62.2361V0.169189H65.8498C67.3031 0.169189 68.0118 0.882915 68.0118 2.34804V16.561Z" fill="white"></path></g><mask id="mask4_180_295" style="mask-type:alpha" maskUnits="userSpaceOnUse" x="68" y="5" width="12" height="16"><path d="M78.6826 5.51611C79.0064 5.51611 79.3495 5.57183 79.3615 5.57484L79.6077 5.617V9.67354L79.2705 9.62235C79.2645 9.62084 78.9273 9.57116 78.4633 9.57116C77.1548 9.57116 75.5374 10.2939 74.9287 12.3252C74.7377 13.0164 74.6392 13.7632 74.6392 14.5387V20.4278H70.5958V9.6073C70.5958 9.36937 70.5182 9.2941 70.284 9.2941H68.8934V5.71036H72.3698C73.8022 5.71036 74.5318 6.38795 74.5318 7.72206V8.05785C75.4509 6.49637 76.9996 5.51611 78.6826 5.51611Z" fill="white"></path></mask><g mask="url(#mask4_180_295)"><path d="M78.6826 5.51611C79.0064 5.51611 79.3495 5.57183 79.3615 5.57484L79.6077 5.617V9.67354L79.2705 9.62235C79.2645 9.62084 78.9273 9.57116 78.4633 9.57116C77.1548 9.57116 75.5374 10.2939 74.9287 12.3252C74.7377 13.0164 74.6392 13.7632 74.6392 14.5387V20.4278H70.5958V9.6073C70.5958 9.36937 70.5182 9.2941 70.284 9.2941H68.8934V5.71036H72.3698C73.8022 5.71036 74.5318 6.38795 74.5318 7.72206V8.05785C75.4509 6.49637 76.9996 5.51611 78.6826 5.51611Z" fill="white"></path></g><mask id="mask5_180_295" style="mask-type:alpha" maskUnits="userSpaceOnUse" x="79" y="5" width="9" height="16"><path d="M85.3634 16.561C85.3634 16.7854 85.4499 16.8757 85.6737 16.8757H87.0673V20.4278H83.4521C81.9974 20.4278 81.3185 19.7367 81.3185 18.249V9.60739C81.3185 9.37097 81.2439 9.29418 81.0082 9.29418H79.9637V5.71045H83.2328C84.6666 5.71045 85.3634 6.42418 85.3634 7.8893V16.561Z" fill="white"></path></mask><g mask="url(#mask5_180_295)"><path d="M85.3634 16.561C85.3634 16.7854 85.4499 16.8757 85.6737 16.8757H87.0673V20.4278H83.4521C81.9974 20.4278 81.3185 19.7367 81.3185 18.249V9.60739C81.3185 9.37097 81.2439 9.29418 81.0082 9.29418H79.9637V5.71045H83.2328C84.6666 5.71045 85.3634 6.42418 85.3634 7.8893V16.561Z" fill="white"></path></g><mask id="mask6_180_295" style="mask-type:alpha" maskUnits="userSpaceOnUse" x="85" y="5" width="16" height="16"><path d="M100.629 5.71069V9.29443H100.008C99.692 9.29443 99.5875 9.40285 99.5129 9.60161L95.4322 20.4281H90.8846L86.8039 9.60161C86.7293 9.40285 86.6278 9.29443 86.3115 9.29443H85.7162V5.71069H88.0109C89.2881 5.71069 89.9416 6.13834 90.3459 7.23303L92.9823 14.661C93.0823 14.9366 93.1733 15.2498 93.2494 15.5464C93.3225 15.2498 93.4076 14.9411 93.4986 14.6655L96.135 7.23455C96.5349 6.15188 97.2107 5.71069 98.4715 5.71069H100.629Z" fill="white"></path></mask><g mask="url(#mask6_180_295)"><path d="M100.629 5.71069V9.29443H100.008C99.692 9.29443 99.5875 9.40285 99.5129 9.60161L95.4322 20.4281H90.8846L86.8039 9.60161C86.7293 9.40285 86.6278 9.29443 86.3115 9.29443H85.7162V5.71069H88.0109C89.2881 5.71069 89.9416 6.13834 90.3459 7.23303L92.9823 14.661C93.0823 14.9366 93.1733 15.2498 93.2494 15.5464C93.3225 15.2498 93.4076 14.9411 93.4986 14.6655L96.135 7.23455C96.5349 6.15188 97.2107 5.71069 98.4715 5.71069H100.629Z" fill="white"></path></g><mask id="mask7_180_295" style="mask-type:alpha" maskUnits="userSpaceOnUse" x="100" y="5" width="15" height="16"><path d="M104.541 10.9465H109.913C109.747 9.61843 108.812 8.68335 107.591 8.68335C106.077 8.68335 104.985 9.50249 104.541 10.9465ZM107.591 5.37817C111.479 5.37817 114.092 8.19097 114.092 12.377C114.092 12.8016 114.01 13.6704 114.005 13.7066L113.983 13.9746H104.391C104.741 15.9321 106.224 17.1804 108.252 17.1804C110.356 17.1804 111.963 15.6942 111.976 15.6807L112.245 15.4307L114.002 18.3805L113.838 18.5431C113.747 18.6335 111.569 20.7626 108.004 20.7626C103.475 20.7626 100.191 17.5267 100.191 13.0712C100.191 8.54181 103.236 5.37817 107.591 5.37817Z" fill="white"></path></mask><g mask="url(#mask7_180_295)"><path d="M104.541 10.9465H109.913C109.747 9.61843 108.812 8.68335 107.591 8.68335C106.077 8.68335 104.985 9.50249 104.541 10.9465ZM107.591 5.37817C111.479 5.37817 114.092 8.19097 114.092 12.377C114.092 12.8016 114.01 13.6704 114.005 13.7066L113.983 13.9746H104.391C104.741 15.9321 106.224 17.1804 108.252 17.1804C110.356 17.1804 111.963 15.6942 111.976 15.6807L112.245 15.4307L114.002 18.3805L113.838 18.5431C113.747 18.6335 111.569 20.7626 108.004 20.7626C103.475 20.7626 100.191 17.5267 100.191 13.0712C100.191 8.54181 103.236 5.37817 107.591 5.37817Z" fill="white"></path></g><mask id="mask8_180_295" style="mask-type:alpha" maskUnits="userSpaceOnUse" x="18" y="0" width="4" height="5"><path d="M18.228 0.17041H21.8327V4.0026H18.228V0.17041Z" fill="white"></path></mask><g mask="url(#mask8_180_295)"><path d="M18.228 0.17041H21.8327V4.0026H18.228V0.17041Z" fill="white"></path></g><mask id="mask9_180_295" style="mask-type:alpha" maskUnits="userSpaceOnUse" x="81" y="0" width="5" height="5"><path d="M81.4824 0.17041H85.0886V4.0026H81.4824V0.17041Z" fill="white"></path></mask><g mask="url(#mask9_180_295)"><path d="M81.4824 0.17041H85.0886V4.0026H81.4824V0.17041Z" fill="white"></path></g><mask id="mask10_180_295" style="mask-type:alpha" maskUnits="userSpaceOnUse" x="0" y="5" width="17" height="21"><path d="M6.16506 13.1535C6.16506 15.1035 7.15428 17.207 9.33114 17.207C10.9455 17.207 12.5778 15.9467 12.5778 13.1249C12.5778 10.6509 11.2946 8.99003 9.38485 8.99003C7.82867 8.99003 6.16506 10.0832 6.16506 13.1535ZM10.1517 5.37769C14.0549 5.37769 16.6794 8.46904 16.6794 13.0707C16.6794 17.6 13.9146 20.7621 9.96226 20.7621C8.07783 20.7621 6.87079 19.955 6.23966 19.3708C6.24415 19.5093 6.24712 19.6644 6.24712 19.8301V25.9721H2.20374V9.60738C2.20374 9.36948 2.12765 9.2942 1.89191 9.2942H0.501343V5.71045H3.8942C5.45635 5.71045 5.85621 6.50551 5.9323 7.11836C6.56641 6.40763 7.88088 5.37769 10.1517 5.37769Z" fill="white"></path></mask><g mask="url(#mask10_180_295)"><path d="M6.16506 13.1535C6.16506 15.1035 7.15428 17.207 9.33114 17.207C10.9455 17.207 12.5778 15.9467 12.5778 13.1249C12.5778 10.6509 11.2946 8.99003 9.38485 8.99003C7.82867 8.99003 6.16506 10.0832 6.16506 13.1535ZM10.1517 5.37769C14.0549 5.37769 16.6794 8.46904 16.6794 13.0707C16.6794 17.6 13.9146 20.7621 9.96226 20.7621C8.07783 20.7621 6.87079 19.955 6.23966 19.3708C6.24415 19.5093 6.24712 19.6644 6.24712 19.8301V25.9721H2.20374V9.60738C2.20374 9.36948 2.12765 9.2942 1.89191 9.2942H0.501343V5.71045H3.8942C5.45635 5.71045 5.85621 6.50551 5.9323 7.11836C6.56641 6.40763 7.88088 5.37769 10.1517 5.37769Z" fill="white"></path></g></svg>