<?xml version="1.0" encoding="UTF-8"?>
<svg id="Camada_1" xmlns="http://www.w3.org/2000/svg" xmlns:xlink="http://www.w3.org/1999/xlink" version="1.1" viewBox="0 0 152.29 140.44">
  <!-- Generator: Adobe Illustrator 29.1.0, SVG Export Plug-In . SVG Version: 2.1.0 Build 142)  -->
  <defs>
    <style>
      .st0 {
        fill: url(#Gradiente_sem_nome_281);
      }

      .st1 {
        fill: url(#Gradiente_sem_nome_2813);
      }

      .st2 {
        fill: url(#Gradiente_sem_nome_2812);
      }

      .st3 {
        fill: url(#Gradiente_sem_nome_2811);
      }
    </style>
    <linearGradient id="Gradiente_sem_nome_281" data-name="Gradiente sem nome 281" x1="44.06" y1="121.18" x2="44.06" y2="-16.07" gradientUnits="userSpaceOnUse">
      <stop offset="0" stop-color="#9fc378"/>
      <stop offset=".39" stop-color="#69a842"/>
      <stop offset=".9" stop-color="#69a842"/>
    </linearGradient>
    <linearGradient id="Gradiente_sem_nome_2811" data-name="Gradiente sem nome 281" x1="108.19" y1="121.18" x2="108.19" y2="-16.07" xlink:href="#Gradiente_sem_nome_281"/>
    <linearGradient id="Gradiente_sem_nome_2812" data-name="Gradiente sem nome 281" x1="44.04" y1="121.18" x2="44.04" y2="-16.07" xlink:href="#Gradiente_sem_nome_281"/>
    <linearGradient id="Gradiente_sem_nome_2813" data-name="Gradiente sem nome 281" x1="108.23" y1="121.18" x2="108.23" y2="-16.07" xlink:href="#Gradiente_sem_nome_281"/>
  </defs>
  <g id="EHnr3M.tif">
    <g>
      <path class="st0" d="M41.81,11.23l5.9,1.25c20.93,4.56,33.77,38.44,11.83,49.98-16.94,8.91-38.11-5.64-41.71-23.12-.24-1.15-.23-2.44-.62-3.52.12-1.78-.17-3.77,0-5.52.8-8.24,7.42-15.94,15.31-18.19l3.76-.88h5.52Z"/>
      <path class="st3" d="M116.08,11.23c18.88,1.84,23.16,23.17,14.76,37.72-13.85,23.99-53.29,20.72-49.1-10.2,1.92-14.18,14.47-26.35,28.82-27.51,1.48-.12,4.06-.14,5.52,0Z"/>
      <path class="st2" d="M17.21,110.1c-.14-1.46-.12-4.04,0-5.52,1.53-18.82,23.4-35.53,41.49-27.06,20.26,9.47,12.85,37.74-3.78,47.34-14.55,8.4-35.88,4.12-37.72-14.76Z"/>
      <path class="st1" d="M125.78,84.84c9.19,9.15,13.43,26.02,4.36,36.68-13.45,15.81-38.65,5.3-45.97-11.51-12.94-29.73,20.64-46.04,41.61-25.17Z"/>
    </g>
  </g>
</svg>