<?xml version="1.0" encoding="UTF-8"?>
<svg id="Camada_1" xmlns="http://www.w3.org/2000/svg" xmlns:xlink="http://www.w3.org/1999/xlink" version="1.1" viewBox="0 0 862.37 204.44">
  <!-- Generator: Adobe Illustrator 29.1.0, SVG Export Plug-In . SVG Version: 2.1.0 Build 142)  -->
  <defs>
    <style>
      .st0 {
        fill: url(#Gradiente_sem_nome_281);
      }

      .st1 {
        fill: #51297f;
      }

      .st2 {
        fill: url(#Gradiente_sem_nome_2813);
      }

      .st3 {
        fill: url(#Gradiente_sem_nome_2812);
      }

      .st4 {
        fill: url(#Gradiente_sem_nome_2811);
      }
    </style>
    <linearGradient id="Gradiente_sem_nome_281" data-name="Gradiente sem nome 281" x1="373.14" y1="152.82" x2="373.14" y2="15.58" gradientUnits="userSpaceOnUse">
      <stop offset="0" stop-color="#9fc378"/>
      <stop offset=".39" stop-color="#69a842"/>
      <stop offset=".9" stop-color="#69a842"/>
    </linearGradient>
    <linearGradient id="Gradiente_sem_nome_2811" data-name="Gradiente sem nome 281" x1="437.27" y1="152.82" x2="437.27" y2="15.58" xlink:href="#Gradiente_sem_nome_281"/>
    <linearGradient id="Gradiente_sem_nome_2812" data-name="Gradiente sem nome 281" x1="373.12" y1="152.82" x2="373.12" y2="15.58" xlink:href="#Gradiente_sem_nome_281"/>
    <linearGradient id="Gradiente_sem_nome_2813" data-name="Gradiente sem nome 281" x1="437.31" y1="152.82" x2="437.31" y2="15.58" xlink:href="#Gradiente_sem_nome_281"/>
  </defs>
  <g>
    <path class="st1" d="M74.14,129.53v1.98c-.12,6.04-3.6,10-8.95,10s-8.83-4.07-8.83-10v-52.08h-14.41c-5.58-.12-9.07-3.25-9.07-8.14s3.6-8.14,9.07-8.14h46.61c5.46.12,9.07,3.25,9.07,8.14s-3.72,8.14-9.07,8.14h-14.41v50.1Z"/>
    <path class="st1" d="M119.71,113.02c0,4.65.23,6.04,1.05,7.9,1.4,3.14,4.88,5.46,8.49,5.46,5.35,0,9.42-4.42,9.42-10v-22.9c.12-5.23,3.14-8.6,7.79-8.6s7.67,3.49,7.67,8.6v21.27c0,7.56-1.63,12.9-5.46,17.67-4.65,5.93-11.86,9.42-19.3,9.42-8.6,0-17.09-4.77-21.74-12.32-2.21-3.6-3.37-9.07-3.37-15.11v-20.92c.12-5.23,3.02-8.6,7.67-8.6s7.79,3.49,7.79,8.6v19.53Z"/>
    <path class="st1" d="M194.45,84.54c5.46,0,10,4.3,10,9.53s-4.18,9.18-9.3,9.18c-2.21,0-2.56-.23-5.58-1.98-1.16-.7-2.09-1.05-3.02-1.05-2.44,0-3.37,1.98-3.37,7.09v25.57c-.12,5.23-3.02,8.6-7.67,8.6s-7.79-3.49-7.79-8.6v-36.73c0-4.53.12-5.58,1.05-7.21,1.51-2.67,3.84-4.07,6.63-4.07,3.14,0,5.58,1.63,7.09,4.53,3.6-3.14,7.79-4.88,11.97-4.88Z"/>
    <path class="st1" d="M242.35,84.54c15.11,0,26.5,12.32,26.5,28.6s-11.39,28.71-26.85,28.71c-6.39,0-10.81-1.63-15.81-5.93-1.28,3.84-3.6,5.58-7.32,5.58-2.79,0-5.23-1.28-6.28-3.37-.93-1.63-1.16-3.02-1.16-6.74v-59.63c.12-5.23,3.14-8.6,7.79-8.6s7.67,3.49,7.67,8.6v18.13c4.77-3.72,9.42-5.35,15.46-5.35ZM226.54,113.14c0,7.32,5.81,13.13,13.02,13.13s13.14-5.93,13.14-13.25-5.93-12.9-13.14-12.9-13.02,5.81-13.02,13.02Z"/>
    <path class="st1" d="M332.9,113.37c0,15.58-13.02,28.48-28.83,28.48s-28.94-12.79-28.94-28.13c0-16.39,12.79-29.18,29.06-29.18s28.71,12.79,28.71,28.83ZM290.94,113.49c0,6.86,5.93,12.67,13.14,12.67s13.14-5.81,13.14-13.02-5.81-13.14-13.02-13.14-13.25,5.81-13.25,13.48Z"/>
  </g>
  <g>
    <path class="st1" d="M501.94,129.53v1.98c-.12,6.04-3.6,10-8.95,10s-8.83-4.07-8.83-10v-58c0-6.74,3.6-10.35,10.23-10.35h15.23c3.02,0,6.97.58,10.69,1.4,6.97,1.63,12.32,5.46,16.27,11.86,2.79,4.65,4.42,10.11,4.42,15.34,0,10.58-6.28,20.57-15.81,25.22-4.18,1.98-7.67,2.67-14.65,2.67h-8.6v9.88ZM508.92,103.37c5.23,0,6.86-.23,8.95-1.51,3.6-1.98,5.93-5.93,5.93-10,0-4.3-2.79-8.72-6.63-10.58-1.51-.7-4.53-1.16-8.25-1.16h-6.97v23.25h6.97Z"/>
    <path class="st1" d="M549.48,73.5v-1.74c.12-5.23,3.14-8.6,7.79-8.6s7.67,3.49,7.67,8.6v60.45c.12,5.81-2.79,9.3-7.67,9.3s-7.79-3.49-7.79-8.6v-59.4Z"/>
    <path class="st1" d="M594,113.02c0,4.65.23,6.04,1.05,7.9,1.39,3.14,4.88,5.46,8.49,5.46,5.35,0,9.42-4.42,9.42-10v-22.9c.12-5.23,3.14-8.6,7.79-8.6s7.67,3.49,7.67,8.6v21.27c0,7.56-1.63,12.9-5.46,17.67-4.65,5.93-11.86,9.42-19.3,9.42-8.6,0-17.09-4.77-21.74-12.32-2.21-3.6-3.37-9.07-3.37-15.11v-20.92c.12-5.23,3.02-8.6,7.67-8.6s7.79,3.49,7.79,8.6v19.53Z"/>
    <path class="st1" d="M684.33,84.89c2.33,0,4.65,1.16,6.04,3.14,1.16,1.63,1.51,3.02,1.51,6.28v38.01c0,8.49-1.39,14.18-4.65,18.13-5.12,6.28-13.25,9.88-22.43,9.88-12.44,0-23.13-6.16-23.13-13.37,0-4.18,3.25-7.56,7.44-7.56,2.32,0,3.72.58,7.09,3.02,3.6,2.44,5.81,3.37,9.3,3.37,6.97,0,10.93-4.53,10.93-12.55v-.93c-4.53,3.25-8.6,4.65-13.95,4.65-13.83,0-24.29-11.16-24.29-25.81s10.46-26.62,24.06-26.62c5.81,0,10,1.39,15.23,5.23,1.28-3.14,3.84-4.88,6.86-4.88ZM654.45,110.69c0,6.39,5,11.39,11.28,11.39s11.28-5,11.28-11.28-5-11.39-11.28-11.39-11.28,5-11.28,11.28Z"/>
    <path class="st1" d="M722.57,72.22c0,5.11-4.18,9.3-9.42,9.3s-9.3-4.18-9.3-9.07c0-5.35,4.18-9.42,9.53-9.42s9.18,4.07,9.18,9.18ZM721.18,131.15v1.74c-.12,5.23-3.14,8.6-7.67,8.6s-7.79-3.49-7.79-8.6v-39.41c.12-5.23,3.14-8.6,7.67-8.6s7.79,3.49,7.79,8.6v37.66Z"/>
    <path class="st1" d="M768.95,113.37c0-4.65-.23-6.04-1.05-8.02-1.4-3.14-4.88-5.35-8.49-5.35-5.35,0-9.42,4.42-9.42,10v22.9c-.12,5.23-3.14,8.6-7.79,8.6s-7.67-3.49-7.67-8.6v-21.39c0-7.56,1.63-12.79,5.46-17.67,4.65-5.81,11.86-9.3,19.3-9.3,8.6,0,17.09,4.77,21.74,12.32,2.21,3.6,3.37,8.95,3.37,15.11v20.92c-.12,5.23-3.14,8.6-7.67,8.6s-7.79-3.49-7.79-8.6v-19.53Z"/>
    <path class="st1" d="M835.79,95.35c0,3.6-3.25,6.86-6.97,6.86-1.98,0-3.72-.58-6.63-2.33-3.72-2.09-4.77-2.67-6.39-2.67s-2.91,1.28-2.91,2.67c0,2.56,2.21,3.84,9.3,5.7,5.23,1.39,7.56,2.21,10,3.49,4.77,2.67,7.56,7.67,7.56,13.48,0,11.39-9.18,19.3-22.32,19.3-12.09,0-23.25-7.32-23.25-15.23,0-4.18,3.25-7.9,7.09-7.9,2.56,0,5,1.28,8.14,3.95,4.53,3.95,6.16,4.77,9.18,4.77s5.35-1.74,5.35-4.07c0-1.98-1.51-3.14-5.12-3.95-4.3-1.05-10.11-3.02-13.37-4.53-5.11-2.56-8.49-8.02-8.49-13.72,0-6.51,4.3-12.55,10.93-15.23,2.44-.93,5.58-1.51,9.42-1.51,9.88,0,18.48,5.11,18.48,10.93Z"/>
  </g>
  <g id="EHnr3M.tif">
    <g>
      <path class="st0" d="M370.89,42.87l5.9,1.25c20.93,4.56,33.77,38.44,11.83,49.98-16.94,8.91-38.11-5.64-41.71-23.12-.24-1.15-.23-2.44-.62-3.52.12-1.78-.17-3.77,0-5.52.8-8.24,7.42-15.94,15.31-18.19l3.76-.88h5.52Z"/>
      <path class="st4" d="M445.17,42.87c18.88,1.84,23.16,23.17,14.76,37.72-13.85,23.99-53.29,20.72-49.1-10.2,1.92-14.18,14.47-26.35,28.82-27.51,1.48-.12,4.06-.14,5.52,0Z"/>
      <path class="st3" d="M346.3,141.74c-.14-1.46-.12-4.04,0-5.52,1.53-18.82,23.4-35.53,41.49-27.06,20.26,9.47,12.85,37.74-3.78,47.34-14.55,8.4-35.88,4.12-37.72-14.76Z"/>
      <path class="st2" d="M454.86,116.48c9.19,9.15,13.43,26.02,4.36,36.68-13.45,15.81-38.65,5.3-45.97-11.51-12.94-29.73,20.64-46.04,41.61-25.17Z"/>
    </g>
  </g>
</svg>